<?xml version="1.0" encoding="utf-8"?>
<!-- Generator: Adobe Illustrator 18.0.0, SVG Export Plug-In . SVG Version: 6.00 Build 0)  -->
<!DOCTYPE svg PUBLIC "-//W3C//DTD SVG 1.1//EN" "http://www.w3.org/Graphics/SVG/1.1/DTD/svg11.dtd">
<svg version="1.1" id="Layer_1" xmlns="http://www.w3.org/2000/svg" xmlns:xlink="http://www.w3.org/1999/xlink" x="0px" y="0px"
	 viewBox="0 67.9 360 80.1" enable-background="new 0 67.9 360 80.1" xml:space="preserve">
<g>
	<g>
		<path fill="#FFFFFF" d="M131.5,99.1c0,3.1,0,3.6,3.1,3.6h8c6.2,0,7.5-0.9,8.9-6.7l0.4-3.1c0.9-0.9,4-0.9,4.4,0
			c-0.4,4-0.4,8-0.4,12.4s0,8.9,0.4,12.4c-0.4,0.9-3.6,1.3-4.4,0l-0.4-3.1c-1.3-5.8-2.7-6.7-8.9-6.7h-8c-3.1,0-3.1,0-3.1,3.6v14.2
			c0,5.3,0.4,9.3,1.8,11.1c1.3,2.2,4,3.1,12.4,3.1c10.2,0,14.2-0.4,20.9-13.8c0.9-1.3,4-0.9,4.4,0.4c-0.4,6.2-3.1,15.5-4.9,19.1
			c-6.2-0.4-17.8-0.4-27.1-0.4h-15.5c-5.8,0-11.5,0-20.4,0.4c-0.9-0.9-0.9-3.6,0-4l5.3-0.9c5.3-0.9,6.2-1.3,6.2-12.4V85.4
			c0-10.7-0.9-11.5-6.2-12.4l-3.1-0.4c-0.9-0.9-0.9-3.6,0.4-4C111,69,117.2,69,122.6,69h24.9c7.5,0,14.2,0,16-0.4
			c0,1.8,0.9,10.2,1.3,18.2c-0.4,1.3-3.1,1.3-4.4,0.4c-1.3-4-3.1-7.5-4.4-9.3c-2.2-2.2-5.8-3.6-11.5-3.6h-9.3c-4,0-4,0.4-4,4.4v20.4
			C131.2,99.1,131.5,99.1,131.5,99.1z"/>
		<path fill="#FFFFFF" d="M175,72c-0.9-0.9-0.9-4,0.4-4c4,0.4,8.9,0.4,15.1,0.4c4,0,7.1,0,11.5-0.4c0,7.1,4,14.6,9.3,25.7l8,16.4
			c0.9,2.2,5.3,9.8,7.1,12.9c1.3-2.7,3.6-6.7,6.7-13.3l6.2-12.9c4.9-12.4,8-18.6,10.2-28.9c5.3,0.4,8,0.4,11.5,0.4
			c4,0,9.3,0,13.8-0.4c1.3,0.9,1.3,3.1,0.4,4l-3.6,0.4c-4.9,0.9-7.1,2.2-7.1,8.4c0,24.4,0.4,36.8,0.9,51.9c0.4,5.3,0.9,8.4,5.3,8.9
			l4,0.4c0.9,0.9,0.9,3.6-0.4,4c-5.3-0.4-10.7-0.4-16.4-0.4c-5.3,0-12,0-17.3,0.4c-1.3-0.4-1.3-3.1-0.4-4l3.6-0.4
			c5.3-0.9,5.3-2.2,5.3-9.3l-0.4-30.6V88.5h-0.4c-8.9,19.1-18.2,38.6-25.7,58.6c-0.4,0.4-1.3,0.9-2.2,0.9s-2.2-0.4-3.1-0.9
			c-4.4-14.6-19.1-43.9-25.7-59h-0.4c0,7.5,0,12.9,0,19.1c0,7.5-0.4,19.5-0.4,26.6c0,5.8,0.9,7.5,5.3,8.4l4.4,0.9
			c0.9,0.9,0.9,3.6-0.4,4c-4.4-0.4-9.3-0.4-13.8-0.4c-4,0-8.4,0-12.9,0.4c-1.3-0.4-1.3-3.6-0.4-4l2.2-0.4c6.2-0.9,6.7-1.8,7.5-8.9
			c0.4-5.8,0.9-16,1.8-27.1c0.4-8,0.9-17.3,0.9-24c0-6.7-2.7-8.4-7.1-9.3L175,72z"/>
		<path fill="#FFFFFF" d="M291.7,87.6c0-12-0.4-13.3-5.3-13.8l-3.1-0.4c-1.3-0.4-1.3-3.6,0.4-4c8.9-0.4,18.2-0.9,29.3-0.9
			c10.2,0,18.6,1.3,23.1,4.4c6.7,3.6,10.2,9.3,10.2,16.9c0,10.7-7.1,15.1-12.4,17.8c-1.3,0.4-1.3,1.3-0.9,2.7
			c8,16,12.4,24.9,18.2,29.3c3.1,2.7,6.2,3.1,8,3.1c0.9,0.4,0.9,2.2,0.4,3.1c-1.8,0.9-5.8,0.9-9.3,0.9c-10.7,0-17.8-4-23.1-12.4
			c-4-6.2-6.7-12-9.3-18.2c-1.3-3.1-3.1-4-6.2-4c-4,0-4.4,0.4-4.4,2.7v14.6c0,10.7,0.9,11.5,6.2,12.4l3.1,0.4c0.9,0.4,0.9,3.6,0,4
			c-6.2-0.4-11.5-0.4-17.3-0.4c-5.8,0-11.1,0-17.3,0.4c-0.9-0.9-0.9-3.6,0-4l3.1-0.4c5.3-0.9,6.2-1.8,6.2-12.4V87.6H291.7z
			 M307.7,102.7c0,4,0.4,4.4,7.1,4.4c4.4,0,6.7-0.9,8.9-3.1c2.2-2.2,4.4-5.8,4.4-12.9c0-10.7-6.2-17.3-15.5-17.3
			c-4.9,0-4.9,0.4-4.9,6.2V102.7z"/>
	</g>
	<g>
		<polygon fill="#FFFFFF" points="61.7,148 0,148 0,125.8 		"/>
		<polygon fill="#FFFFFF" points="61.7,136.9 18.2,93.4 33.7,77.8 		"/>
		<polygon fill="#FFFFFF" points="69.2,129.8 69.2,68 91.4,68 		"/>
	</g>
</g>
</svg>
